<svg version="1.2" xmlns="http://www.w3.org/2000/svg" viewBox="0 0 55 54" width="55" height="54">
	<title>Group_42997 (1)-svg</title>
	<style>
		.s0 { fill: #818181 } 
		.s1 { fill: #000000 } 
		.s2 { fill: #ffffff } 
	</style>
	<path id="Layer" fill-rule="evenodd" class="s0" d="m44.5 18.2c-3.6 2.2-5.7 6-5.7 10.1 0 4.7 2.8 9 7 10.8-0.8 2.7-2.1 5.2-3.6 7.5-2.3 3.3-4.7 6.6-8.2 6.6-3.5 0-4.5-2.1-8.6-2.1-4 0-5.5 2.2-8.8 2.2-3.3 0-5.6-3-8.1-6.8-3.4-5.2-5.4-11.3-5.5-17.6 0-10.4 6.6-15.9 13.2-15.9 3.5 0 6.4 2.3 8.6 2.3 2 0 5.3-2.4 9.2-2.4 4.2-0.1 8.1 1.8 10.5 5.3zm-19.4-5.9c-0.2 0-0.5-0.1-0.8-0.1-0.1-0.3-0.1-0.6-0.1-0.9 0.1-2.7 1.2-5.2 2.9-7.2 2-2.3 4.8-3.8 7.8-4.1 0.1 0.3 0.1 0.7 0.1 1-0.1 2.8-1.1 5.4-2.8 7.5-1.8 2.2-4.3 3.6-7.1 3.8z"/>
	<path id="Layer 1" class="s1" d="m40.5 54c-7.5 0-13.5-6-13.5-13.5 0-7.5 6-13.5 13.5-13.5 7.5 0 13.5 6 13.5 13.5 0 7.5-6 13.5-13.5 13.5z"/>
	<path id="Layer" fill-rule="evenodd" class="s2" d="m39.3 44.9q-1.9 0-3.2-1.4-1.1-1.3-1.1-3 0-2 1.4-3.2 1.2-1.2 2.9-1.2 2 0 3.3 1.5 1.1 1.2 1.1 2.9 0 2-1.5 3.3-1.2 1.1-2.9 1.1zm-1.7-2.4q0.7 0.7 1.7 0.7 1.2 0 1.9-0.8 0.6-0.8 0.6-1.9 0-1.3-0.8-2-0.7-0.7-1.7-0.7-1.2 0-1.8 0.9-0.6 0.7-0.6 1.8 0 1.3 0.7 2zm15-4.9q1.1 1.2 1.1 2.9 0 2-1.4 3.3-1.2 1.1-2.9 1.1-2 0-3.2-1.4-1.1-1.3-1.1-3 0-2 1.4-3.2 1.2-1.2 2.9-1.2 2 0 3.2 1.5zm-21.5-3.7c2-2.5 5-3.9 8.2-3.9 3.4 0 6.6 1.7 8.6 4.4 0.2 0.2 0.1 0.5-0.1 0.7q-0.1 0.1-0.3 0.1-0.2 0-0.3-0.2c-1.8-2.6-4.8-4.1-7.9-4.1-2.9 0-5.6 1.3-7.5 3.6-0.1 0.2-0.4 0.2-0.6 0.1-0.2-0.2-0.3-0.5-0.1-0.7zm16.8 12.7c-1.9 2.8-5.2 4.4-8.6 4.4-0.2 0-0.4-0.2-0.4-0.5 0-0.2 0.2-0.4 0.4-0.4 3.1 0 6.1-1.5 7.9-4.1 0.1-0.2 0.4-0.2 0.6-0.1 0.2 0.2 0.3 0.5 0.1 0.7z"/>
</svg>