<svg width="171" height="173" viewBox="0 0 171 173" fill="none" xmlns="http://www.w3.org/2000/svg">
<rect width="140" height="140" rx="6" fill="black"/>
<path d="M34 78.043L69.8166 99.1168V128.298L34 78.043Z" fill="#F7CBBF" stroke="#2B1EBC" stroke-width="0.625" stroke-linejoin="round"/>
<path d="M34 71.2347L69.8166 54.9867V12L34 71.2347Z" fill="#F7CBBF" stroke="#2B1EBC" stroke-width="0.625" stroke-linejoin="round"/>
<path d="M34 71.2362L69.8166 54.9883V92.3398L34 71.2362Z" fill="#81A9F8" stroke="#2B1EBC" stroke-width="0.625" stroke-linejoin="round"/>
<path d="M105.633 78.043L69.8164 99.1168V128.298L105.633 78.043Z" fill="#CDAFFA" stroke="#2B1EBC" stroke-width="0.625" stroke-linejoin="round"/>
<path d="M105.633 71.2347L69.8164 54.9867V12L105.633 71.2347Z" fill="#A4FCF5" stroke="#2B1EBC" stroke-width="0.625" stroke-linejoin="round"/>
<path d="M105.633 71.2362L69.8164 54.9883V92.3398L105.633 71.2362Z" fill="#CDAFFA" stroke="#2B1EBC" stroke-width="0.625" stroke-linejoin="round"/>
<g filter="url(#filter0_d_1837_3573)">
<rect x="91" y="89" width="75.12" height="75.12" rx="37.56" fill="white"/>
<path d="M133.059 135.884C135.422 133.746 136.6 131.018 136.6 127.706C136.6 124.854 135.68 122.405 133.846 120.361C131.732 117.974 129.026 116.785 125.734 116.785C122.902 116.785 120.46 117.718 118.409 119.576C116.045 121.713 114.867 124.426 114.867 127.706C114.867 130.559 115.788 133.023 117.621 135.099C119.766 137.485 122.473 138.674 125.734 138.674C128.597 138.674 131.038 137.749 133.059 135.884ZM119.579 127.706C119.579 125.849 120.078 124.31 121.069 123.105C122.216 121.682 123.776 120.967 125.734 120.967C127.442 120.967 128.862 121.527 129.977 122.638C131.28 123.882 131.935 125.569 131.935 127.706C131.935 129.564 131.42 131.111 130.398 132.355C129.244 133.746 127.692 134.446 125.734 134.446C124.056 134.446 122.637 133.902 121.49 132.821C120.219 131.546 119.579 129.844 119.579 127.706Z" fill="black"/>
<path d="M150.968 116.785C148.144 116.785 145.702 117.718 143.651 119.576C141.287 121.713 140.102 124.426 140.102 127.706C140.102 130.559 141.022 133.023 142.855 135.099C145 137.485 147.707 138.674 150.968 138.674C153.831 138.674 156.272 137.742 158.293 135.884C160.656 133.746 161.834 131.026 161.834 127.706C161.834 124.854 160.922 122.405 159.088 120.361C156.975 117.974 154.268 116.785 150.968 116.785Z" fill="black"/>
<path d="M105.335 112.883C105.842 113.287 106.575 113.21 106.981 112.704C111.583 106.999 118.424 103.726 125.757 103.726C133.527 103.726 140.859 107.496 145.376 113.816C145.602 114.135 145.961 114.306 146.327 114.306C146.562 114.306 146.803 114.236 147.006 114.088C147.529 113.715 147.654 112.984 147.279 112.463C142.334 105.53 134.283 101.395 125.757 101.395C117.715 101.395 110.202 104.986 105.155 111.243C104.75 111.748 104.835 112.479 105.335 112.883Z" fill="black"/>
<path d="M147.036 141.285C146.506 140.912 145.781 141.037 145.406 141.565C140.889 147.9 133.549 151.686 125.756 151.686C125.109 151.686 124.586 152.207 124.586 152.852C124.586 153.497 125.109 154.018 125.756 154.018C134.306 154.018 142.356 149.867 147.309 142.91C147.684 142.381 147.559 141.658 147.036 141.285Z" fill="black"/>
</g>
<defs>
<filter id="filter0_d_1837_3573" x="87" y="89" width="83.1211" height="83.1211" filterUnits="userSpaceOnUse" color-interpolation-filters="sRGB">
<feFlood flood-opacity="0" result="BackgroundImageFix"/>
<feColorMatrix in="SourceAlpha" type="matrix" values="0 0 0 0 0 0 0 0 0 0 0 0 0 0 0 0 0 0 127 0" result="hardAlpha"/>
<feOffset dy="4"/>
<feGaussianBlur stdDeviation="2"/>
<feComposite in2="hardAlpha" operator="out"/>
<feColorMatrix type="matrix" values="0 0 0 0 0.561111 0 0 0 0 0.561111 0 0 0 0 0.561111 0 0 0 0.25 0"/>
<feBlend mode="normal" in2="BackgroundImageFix" result="effect1_dropShadow_1837_3573"/>
<feBlend mode="normal" in="SourceGraphic" in2="effect1_dropShadow_1837_3573" result="shape"/>
</filter>
</defs>
</svg>
