<svg version="1.2" xmlns="http://www.w3.org/2000/svg" viewBox="0 0 268 268" width="268" height="268">
	<title>google-icon-logo-svgrepo-com-svg</title>
	<style>
		.s0 { fill: #ffffff } 
		.s1 { fill: #4285f4 } 
		.s2 { fill: #34a853 } 
		.s3 { fill: #fbbc05 } 
		.s4 { fill: #eb4335 } 
		.s5 { fill: #000000 } 
	</style>
	<path id="Shape 2" class="s0" d="m0 35c0-19.3 15.7-35 35-35h198c19.3 0 35 15.7 35 35v198c0 19.3-15.7 35-35 35h-198c-19.3 0-35-15.7-35-35z"/>
	<path id="Layer" class="s1" d="m236 136.4c0-8.6-0.7-14.8-2.2-21.3h-97.7v38.6h57.3c-1.1 9.6-7.4 24.1-21.3 33.8l-0.2 1.3 30.9 23.9 2.2 0.2c19.6-18.1 31-44.8 31-76.5z"/>
	<path id="Layer" class="s2" d="m136.1 238.1c28.1 0 51.7-9.2 68.9-25.2l-32.9-25.4c-8.7 6.1-20.5 10.4-36 10.4-27.6 0-50.9-18.2-59.2-43.3l-1.3 0.2-32.1 24.8-0.4 1.2c17.1 34 52.3 57.3 93 57.3z"/>
	<path id="Layer" class="s3" d="m76.9 154.6c-2.2-6.4-3.5-13.4-3.5-20.5 0-7.2 1.3-14.1 3.3-20.6v-1.4l-32.5-25.3-1.1 0.6c-7.1 14.1-11.1 29.9-11.1 46.7 0 16.7 4 32.6 11.1 46.7z"/>
	<path id="Layer" class="s4" d="m136.1 70.2c19.5 0 32.7 8.5 40.2 15.5l29.4-28.6c-18.1-16.8-41.5-27.1-69.6-27.1-40.7 0-75.9 23.4-93 57.4l33.6 26.1c8.5-25.1 31.8-43.3 59.4-43.3z"/>
	<g id="Folder 1">
		<path id="Shape 1" class="s5" d="m212.7 267.8c-30.9 0-55.9-24.9-55.9-55.8 0-30.9 25-55.8 55.9-55.8 30.8 0 55.8 24.9 55.8 55.8 0 30.9-25 55.8-55.8 55.8z"/>
		<path id="Path 0" fill-rule="evenodd" class="s0" d="m212.2 171.3c2.2 0.1 5.3 0.4 6.9 0.8 1.5 0.3 4.4 1.1 6.2 1.8 1.9 0.7 4.9 2.1 6.6 3.2 1.7 1 4.3 2.9 5.7 4.1 1.4 1.2 3.4 3.3 4.5 4.5 1.1 1.3 2.2 2.8 2.4 3.4 0.4 0.8 0.3 1.2-0.4 1.8-0.5 0.6-1.1 0.8-1.8 0.7-0.5-0.2-1.4-0.9-2-1.8-0.6-0.8-2.5-2.8-4.3-4.5-1.9-1.8-4.6-3.9-6.6-5-1.9-1.1-5.1-2.5-7.2-3.1-2-0.7-5.5-1.5-7.7-1.7-3-0.4-4.8-0.3-8 0.1-2.3 0.3-5.6 1.1-7.8 1.8-2.1 0.8-5.3 2.2-7.1 3.3-1.9 1.2-4.6 3.3-6.7 5.5-2.4 2.4-3.8 3.5-4.5 3.5-0.5 0-1.2-0.2-1.5-0.5-0.2-0.3-0.5-0.9-0.5-1.3 0-0.5 1-1.9 2.2-3.2 1.1-1.4 3.5-3.5 5.1-4.8 1.7-1.4 4.7-3.2 6.6-4.2 1.9-1 5.1-2.2 7.1-2.8 1.9-0.6 4.7-1.2 6.1-1.4 1.5-0.2 4.5-0.3 6.7-0.2zm37.4 23.7c0.6 0 2.1 0.1 3.4 0.4 1.4 0.2 3.4 0.9 4.5 1.4 1.1 0.5 3 1.9 4.2 3.1 1.2 1.2 2.7 3.2 3.3 4.4 0.7 1.3 1.4 3.7 1.6 5.3 0.4 2.2 0.4 3.6 0 5.6-0.2 1.4-0.9 3.5-1.4 4.7-0.6 1.2-2 3.1-3.2 4.4-1.3 1.4-3 2.7-4.7 3.5-2.5 1.2-2.8 1.3-7.5 1.3-4.4 0-5-0.1-7.1-1.1-1.2-0.6-3.2-1.9-4.4-3-1.5-1.4-2.6-2.9-3.6-5-1.4-2.9-1.5-3.1-1.5-7.9 0-4.5 0.1-5 1.2-7.2 0.7-1.5 2.1-3.4 3.4-4.7 1.3-1.3 3.1-2.7 4.1-3.2 1-0.5 2.9-1.2 4.3-1.5 1.3-0.3 2.8-0.5 3.4-0.5zm-7 37.5c0.2 0 0.7 0.3 1.2 0.6 0.5 0.4 1 1.1 1 1.6 0 0.5-1 2.1-2.4 3.7-1.3 1.6-3.6 3.9-5.1 5.2-1.6 1.3-4 3.1-5.5 3.9-1.4 0.9-4.1 2.2-5.8 2.9-1.8 0.7-4.9 1.6-6.9 2-2 0.4-5 0.8-6.6 0.8-2.6 0-3-0.1-3.4-0.9-0.3-0.7-0.3-1.2 0-1.9 0.3-0.5 0.9-1 1.4-1.1 0.5-0.1 2.3-0.2 3.9-0.3 1.7-0.2 4.7-0.7 6.7-1.3 2-0.6 5.1-1.8 6.9-2.8 1.8-0.9 4.4-2.6 5.8-3.7 1.4-1.1 3.5-3.1 4.7-4.4 1.1-1.3 2.4-2.8 2.9-3.3 0.5-0.5 1-1 1.2-1zm-32.2-37.5c0.5 0 2.1 0.1 3.4 0.4 1.4 0.2 3.4 0.8 4.6 1.4 1.1 0.5 3.1 1.9 4.3 3.1 1.1 1.2 2.5 2.9 3 3.9 0.6 1 1.2 2.8 1.5 3.9 0.3 1.1 0.6 3.2 0.6 4.6 0 1.5-0.3 3.6-0.6 4.7-0.3 1.1-0.9 2.8-1.4 3.7-0.5 1-1.8 2.7-3 3.8-1.2 1.2-3.2 2.7-4.7 3.4-2.5 1.1-3 1.2-7.3 1.2-4.4 0-4.8-0.1-7.3-1.3-1.7-0.8-3.4-2.1-4.7-3.5-1.2-1.3-2.6-3.3-3.2-4.6-0.6-1.3-1.3-3.4-1.5-4.7-0.3-1.8-0.3-3.3 0-5.5 0.3-1.7 1-4 1.6-5.3 0.6-1.2 2.1-3.1 3.2-4.2 1.1-1.1 3-2.5 4.1-3 1-0.6 2.9-1.2 4.2-1.5 1.2-0.3 2.6-0.5 3.2-0.5zm-4.9 8.8c-0.7 0.6-1.8 1.7-2.3 2.5-0.5 0.8-1.1 2.4-1.3 3.6-0.3 1.2-0.4 3-0.2 4 0.1 1 0.5 2.5 0.9 3.3 0.3 0.8 1 1.9 1.6 2.6 0.6 0.6 1.9 1.5 2.8 1.9 0.9 0.4 2.5 0.7 3.7 0.7 1.2 0 2.8-0.2 3.6-0.6 0.9-0.3 2.2-1.2 2.9-1.9 0.8-0.7 1.7-2 2.1-2.9 0.5-1.1 0.8-2.6 0.8-4.7 0-2.5-0.2-3.4-1.1-5.2-0.7-1.4-1.7-2.7-2.7-3.4-0.9-0.6-2.3-1.2-3.1-1.3-0.8-0.1-1.7-0.3-2-0.4-0.3 0-1.4 0.1-2.4 0.3-1 0.2-2.5 0.8-3.3 1.5z"/>
	</g>
</svg>